<svg width="101" height="100" viewBox="0 0 101 100" fill="none" xmlns="http://www.w3.org/2000/svg">
<path d="M0.901855 99.0996H99.1008V0.900635H0.901855V99.0996Z" fill="#FEFEFE"/>
<path d="M100.001 0H0.00146484V100H100.001V0ZM92.0699 7.93156V92.0684H7.9261V7.93156H92.0699V7.93156Z" fill="#FFE748"/>
<path d="M12.7681 72.6865H14.6522V64.1315H12.7681V72.6865ZM71.1984 81.5117C71.1014 80.4864 70.5126 79.6136 69.4043 79.6136C68.4345 79.6136 67.6933 80.4172 67.5755 81.5117H71.1984ZM69.5567 84.0608C70.3325 84.0608 70.8728 83.7422 71.33 83.2642L71.8565 83.7353C71.2884 84.3656 70.6026 84.7882 69.5359 84.7882C67.9911 84.7882 66.7235 83.6037 66.7235 81.8442C66.7235 80.2094 67.8664 78.9071 69.425 78.9071C71.0945 78.9071 72.0504 80.2371 72.0504 81.8926C72.0504 81.9688 72.0504 82.0589 72.0366 82.1836H67.5755C67.6933 83.3681 68.5661 84.0539 69.5567 84.0539V84.0608ZM63.1283 83.1672V79.766H62.3455V79.0248H63.1283V77.3277H63.9665V79.0248H65.7537V79.766H63.9665V83.0564C63.9665 83.7422 64.3475 83.9916 64.9155 83.9916C65.1995 83.9916 65.4419 83.9362 65.7329 83.7976V84.518C65.4419 84.6704 65.1233 84.7605 64.7215 84.7605C63.821 84.7605 63.1283 84.3171 63.1283 83.1672V83.1672ZM60.2397 82.5923V82.0658C59.824 81.9481 59.2837 81.8234 58.5979 81.8234C57.5519 81.8234 56.9562 82.2806 56.9562 82.9802C56.9562 83.6868 57.6074 84.1024 58.3693 84.1024C59.4015 84.1024 60.2397 83.479 60.2397 82.5923ZM56.0972 83.0079C56.0972 81.8026 57.0809 81.1653 58.501 81.1653C59.2214 81.1653 59.7201 81.2623 60.2189 81.4077V81.2346C60.2189 80.2301 59.6093 79.7106 58.5494 79.7106C57.8844 79.7106 57.3649 79.8769 56.8384 80.1124L56.5891 79.4266C57.2125 79.1426 57.8082 78.9486 58.6395 78.9486C59.4361 78.9486 60.0526 79.1634 60.4613 79.5721C60.8562 79.9669 61.0501 80.5072 61.0501 81.2276V84.6704H60.2258V83.8322C59.831 84.331 59.1937 84.7882 58.2031 84.7882C57.1432 84.7882 56.1042 84.1855 56.1042 83.0148L56.0972 83.0079ZM52.412 83.1742V79.773H51.6292V79.0317H52.412V77.3346H53.2502V79.0317H55.0374V79.773H53.2502V83.0633C53.2502 83.7491 53.6312 83.9985 54.1992 83.9985C54.4832 83.9985 54.7257 83.9431 55.0166 83.8045V84.525C54.7257 84.6774 54.407 84.7674 54.0053 84.7674C53.0978 84.7674 52.412 84.3241 52.412 83.1742V83.1742ZM46.3369 83.95L46.7595 83.3543C47.3691 83.8115 48.0479 84.0747 48.706 84.0747C49.3849 84.0747 49.8698 83.7283 49.8698 83.1603C49.8698 82.5923 49.2048 82.3775 48.4635 82.1697C47.5838 81.9204 46.6002 81.6156 46.6002 80.5557C46.6002 79.5859 47.4037 78.9417 48.519 78.9417C49.2048 78.9417 49.9667 79.1841 50.5417 79.5651L50.1607 80.1955C49.6412 79.8561 49.0385 79.6552 48.4913 79.6552C47.8263 79.6552 47.4037 80.0015 47.4037 80.4934C47.4037 81.0268 48.1033 81.2346 48.8515 81.4632C49.7243 81.7264 50.6594 82.0589 50.6594 83.098C50.6594 84.1647 49.7797 84.7882 48.6575 84.7882C47.854 84.7882 46.9604 84.4695 46.33 83.9569L46.3369 83.95ZM39.6453 77.0437H45.1593V77.8264H40.5112V80.431H44.6744V81.2138H40.5112V83.8807H45.2147V84.6635H39.6522V77.0367L39.6453 77.0437ZM33.4455 84.6704H34.2837V76.7181H33.4455V84.6704ZM30.7717 82.5992V82.0728C30.356 81.955 29.8157 81.8303 29.1299 81.8303C28.0839 81.8303 27.4882 82.2875 27.4882 82.9871C27.4882 83.6937 28.1394 84.1093 28.9013 84.1093C29.9335 84.1093 30.7717 83.4859 30.7717 82.5992V82.5992ZM26.6362 83.0148C26.6362 81.8095 27.6198 81.1722 29.0399 81.1722C29.7603 81.1722 30.2591 81.2692 30.7647 81.4147V81.2415C30.7647 80.2371 30.1552 79.7175 29.0953 79.7175C28.4303 79.7175 27.9108 79.8838 27.3843 80.1193L27.1349 79.4335C27.7584 79.1495 28.3541 78.9555 29.1854 78.9555C29.982 78.9555 30.5985 79.1703 31.0072 79.579C31.402 79.9738 31.596 80.5141 31.596 81.2346V84.6774H30.7717V83.8392C30.3768 84.3379 29.7395 84.7951 28.742 84.7951C27.6891 84.7951 26.6431 84.1925 26.6431 83.0218L26.6362 83.0148ZM24.7381 81.5255C24.6412 80.5003 24.0524 79.6275 22.944 79.6275C21.9742 79.6275 21.233 80.431 21.1153 81.5255H24.7451H24.7381ZM23.0964 84.0747C23.8723 84.0747 24.4126 83.756 24.8698 83.2781L25.3962 83.7491C24.8282 84.3795 24.1424 84.802 23.0756 84.802C21.5309 84.802 20.2632 83.6175 20.2632 81.858C20.2632 80.2232 21.4062 78.9209 22.9648 78.9209C24.6342 78.9209 25.5902 80.2509 25.5902 81.9065C25.5902 81.9827 25.5902 82.0728 25.5763 82.1974H21.1083C21.2261 83.382 22.0989 84.0678 23.0895 84.0678L23.0964 84.0747ZM16.1901 80.9367C17.333 80.9367 18.1504 80.3479 18.1504 79.3435C18.1504 78.4083 17.43 77.8403 16.2039 77.8403H13.8487V80.9367H16.1901ZM12.9897 77.0506H16.2663C17.2014 77.0506 17.9565 77.3346 18.4345 77.8126C18.8016 78.1797 19.0233 78.7131 19.0233 79.3365C19.0233 80.5973 18.1504 81.3385 16.9521 81.5601L19.2934 84.6774H18.2405L16.0307 81.7125H13.8556V84.6774H12.9967V77.0506H12.9897ZM80.4599 64.1453H82.3441V67.886L85.8146 64.1453H88.0867L84.6024 67.7752L88.246 72.7003H85.9878L83.3347 69.0567L82.3441 70.0819V72.7003H80.4599V64.1453ZM75.417 68.3016C76.3314 68.3016 76.8578 67.8167 76.8578 67.0686C76.8578 66.2651 76.2967 65.8494 75.3824 65.8494H73.512V68.3086H75.417V68.3016ZM71.6279 64.1453H75.5417C76.6292 64.1453 77.4744 64.4501 78.0355 65.0112C78.5134 65.4892 78.7697 66.1611 78.7697 66.9924C78.7697 68.3709 78.0216 69.2437 76.934 69.6455L79.026 72.7003H76.8232L74.9667 69.9641H73.512V72.7003H71.6279V64.1453V64.1453ZM66.8897 69.119L65.7537 66.3482L64.6176 69.119H66.8897ZM64.9085 64.083H66.6403L70.3048 72.7003H68.3375L67.5547 70.7815H63.9388L63.156 72.7003H61.2372L64.9016 64.083H64.9085ZM51.3729 64.1453H53.4026L55.6539 67.7613L57.9052 64.1453H59.9349V72.7003H58.0645V67.1171L55.6539 70.7746H55.6054L53.2225 67.1586V72.7073H51.3799V64.1523L51.3729 64.1453ZM46.33 68.3016C47.2444 68.3016 47.7708 67.8167 47.7708 67.0686C47.7708 66.2651 47.2097 65.8494 46.2954 65.8494H44.425V68.3086H46.33V68.3016ZM42.5409 64.1453H46.4547C47.5422 64.1453 48.3874 64.4501 48.9485 65.0112C49.4264 65.4892 49.6827 66.1611 49.6827 66.9924C49.6827 68.3709 48.9346 69.2437 47.847 69.6455L49.939 72.7003H47.7431L45.8867 69.9641H44.432V72.7003H42.5478V64.1453H42.5409ZM34.353 64.1453H40.8091V65.8217H36.2233V67.5535H40.2549V69.2299H36.2233V71.024H40.8645V72.7003H34.353V64.1453V64.1453ZM28.4303 65.8841H25.8257V64.1453H32.9121V65.8841H30.3076V72.7003H28.4234V65.8841H28.4303ZM16.7858 64.1453H18.5176L22.5284 69.41V64.1453H24.3849V72.7003H22.7847L18.6423 67.2626V72.7003H16.7858V64.1453Z" fill="#2B2A29"/>
</svg>
